<svg width="20" height="20" viewBox="0 0 20 20" fill="none" xmlns="http://www.w3.org/2000/svg">
<path d="M10.0016 19.5C8.68772 19.5 7.45268 19.2506 6.29655 18.752C5.1404 18.2533 4.13472 17.5765 3.2795 16.7217C2.42427 15.8669 1.74721 14.8616 1.24833 13.706C0.749442 12.5504 0.5 11.3156 0.5 10.0017C0.5 8.68772 0.749334 7.45268 1.248 6.29655C1.74667 5.1404 2.42342 4.13472 3.27825 3.2795C4.1331 2.42427 5.13834 1.74721 6.29398 1.24833C7.44959 0.749443 8.68437 0.5 9.9983 0.5C11.3122 0.5 12.5473 0.749334 13.7034 1.248C14.8596 1.74667 15.8652 2.42342 16.7205 3.27825C17.5757 4.1331 18.2527 5.13834 18.7516 6.29398C19.2505 7.44959 19.5 8.68437 19.5 9.9983C19.5 11.3122 19.2506 12.5473 18.752 13.7034C18.2533 14.8596 17.5765 15.8652 16.7217 16.7205C15.8669 17.5757 14.8616 18.2527 13.706 18.7516C12.5504 19.2505 11.3156 19.5 10.0016 19.5ZM8.99998 17.95V16C8.44998 16 7.97914 15.8041 7.58748 15.4125C7.19581 15.0208 6.99998 14.55 6.99998 14V13L2.19998 8.19998C2.14998 8.49998 2.10414 8.79998 2.06248 9.09998C2.02081 9.39998 1.99998 9.69998 1.99998 9.99998C1.99998 12.0166 2.66248 13.7833 3.98748 15.3C5.31248 16.8166 6.98331 17.7 8.99998 17.95ZM15.9 15.4C16.2333 15.0333 16.5333 14.6375 16.8 14.2125C17.0666 13.7875 17.2875 13.3458 17.4625 12.8875C17.6375 12.4291 17.7708 11.9583 17.8625 11.475C17.9541 10.9916 18 10.5 18 9.99998C18 8.36181 17.5474 6.86573 16.6423 5.51173C15.7372 4.15774 14.5231 3.18075 13 2.58075V2.99998C13 3.54998 12.8041 4.02081 12.4125 4.41248C12.0208 4.80414 11.55 4.99998 11 4.99998H8.99998V6.99998C8.99998 7.28331 8.90414 7.52081 8.71248 7.71248C8.52081 7.90414 8.28331 7.99998 7.99998 7.99998H5.99998V9.99998H12C12.2833 9.99998 12.5208 10.0958 12.7125 10.2875C12.9041 10.4791 13 10.7166 13 11V14H14C14.4333 14 14.825 14.1291 15.175 14.3875C15.525 14.6458 15.7666 14.9833 15.9 15.4Z" fill="#2252FC"/>
</svg>
